<svg xmlns="http://www.w3.org/2000/svg" xmlns:xlink="http://www.w3.org/1999/xlink" viewBox="0,0,256,256" width="128px" height="128px" fill-rule="nonzero"><g fill="#ffffff" fill-rule="nonzero" stroke="none" stroke-width="1" stroke-linecap="butt" stroke-linejoin="miter" stroke-miterlimit="10" stroke-dasharray="" stroke-dashoffset="0" font-family="none" font-weight="none" font-size="none" text-anchor="none" style="mix-blend-mode: normal"><g transform="scale(4,4)"><path d="M25.23828,4c-0.02,0 -0.04055,0.00095 -0.06055,0.00195c-4.092,0.313 -7.17573,4.10527 -7.17773,10.82227c0,4.155 5.66534,14.20384 11.27734,23.71484c0.187,0.318 0.48625,0.46094 0.78125,0.46094c0.475,0 0.94341,-0.36784 0.94141,-0.96484c-0.061,-22.976 -0.81956,-26.32669 -4.97656,-33.55469c-0.164,-0.286 -0.46616,-0.48047 -0.78516,-0.48047zM38.75391,4c-0.315,0 -0.6133,0.1878 -0.7793,0.4668c-4.237,7.114 -4.92161,10.57536 -4.97461,33.56836c-0.001,0.598 0.46741,0.96484 0.94141,0.96484c0.295,0 0.59425,-0.14294 0.78125,-0.46094c5.612,-9.51 11.27734,-19.55889 11.27734,-23.71289c-0.002,-6.724 -3.0905,-10.51622 -7.1875,-10.82422c-0.02,-0.001 -0.03959,-0.00195 -0.05859,-0.00195zM39.33789,6.0957c2.893,0.633 4.66111,3.89647 4.66211,8.73047c0,3.361 -5.29442,12.91081 -8.98242,19.25781c0.129,-18.718 0.92431,-22.16828 4.32031,-27.98828zM24.64258,6.09766c3.403,6.033 4.20289,9.50842 4.33789,27.98242c-3.687,-6.347 -8.98047,-15.89486 -8.98047,-19.25586c0.001,-4.821 1.76158,-8.08256 4.64258,-8.72656zM10.16992,13c-0.235,0 -0.47206,0.07723 -0.66406,0.24023c-5.691,4.858 -3.48555,14.69939 -0.18555,18.02539c1.977,1.952 8.863,5.25103 16.125,9.58203c0.179,0.106 0.36206,0.15234 0.53906,0.15234c0.709,0 1.29505,-0.75322 0.87305,-1.44922l-15.80078,-26.06445c-0.191,-0.315 -0.53672,-0.48633 -0.88672,-0.48633zM53.83008,13c-0.349,0 -0.69572,0.17133 -0.88672,0.48633l-15.80078,26.06445c-0.422,0.696 0.16405,1.44922 0.87305,1.44922c0.177,0 0.36006,-0.04634 0.53906,-0.15234c7.263,-4.331 14.148,-7.63003 16.125,-9.58203c3.3,-3.326 5.50645,-13.16739 -0.18555,-18.02539c-0.191,-0.163 -0.42906,-0.24023 -0.66406,-0.24023zM9.98633,15.58008l13.07617,21.56836c-1.546,-0.879 -3.03787,-1.7047 -4.42187,-2.4707c-3.536,-1.958 -6.87439,-3.80831 -7.90039,-4.82031c-1.438,-1.449 -2.88347,-4.98831 -2.73047,-8.69531c0.069,-1.634 0.48356,-3.82503 1.97656,-5.58203zM54.01367,15.58008c1.493,1.757 1.90761,3.94803 1.97461,5.58203c0.153,3.707 -1.29184,7.24764 -2.71484,8.68164c-1.04,1.027 -4.37906,2.87598 -7.91406,4.83398c-1.384,0.766 -2.87588,1.5917 -4.42187,2.4707zM2.03125,31c-0.561,0 -1.07534,0.43091 -1.02734,1.00391c0.854,10.236 8.21339,12.99609 13.27539,12.99609h9.69727c1.035,0 1.4143,-1.24147 0.5293,-1.73047l-21.94922,-12.13281c-0.169,-0.094 -0.34939,-0.13672 -0.52539,-0.13672zM61.96875,31c-0.176,0 -0.35639,0.04272 -0.52539,0.13672l-21.94922,12.13281c-0.886,0.489 -0.5057,1.73047 0.5293,1.73047h9.69727c5.062,0 12.42039,-2.76009 13.27539,-12.99609c0.048,-0.573 -0.46634,-1.00391 -1.02734,-1.00391zM3.26563,33.8125l16.61914,9.1875h-5.60547c-2.264,0 -9.36167,-0.7005 -11.01367,-9.1875zM60.73438,33.8125c-1.652,8.487 -8.74967,9.1875 -11.01367,9.1875h-5.60547zM8.96094,47c-0.624,0 -1.09173,0.63906 -0.92773,1.28906c0.819,3.246 2.51216,5.71094 6.53516,5.71094c3.893,0 7.67817,-2.05706 10.20117,-5.28906c0.528,-0.676 0.09244,-1.71094 -0.72656,-1.71094zM39.95703,47c-0.819,0 -1.25456,1.03494 -0.72656,1.71094c2.524,3.232 6.30817,5.28906 10.20117,5.28906c4.024,0 5.71616,-2.46494 6.53516,-5.71094c0.164,-0.65 -0.30273,-1.28906 -0.92773,-1.28906zM10.33984,49h11.45508c-2.065,1.905 -4.65561,3 -7.22461,3c-2.177,0 -3.43547,-0.861 -4.23047,-3zM42.20508,49h11.45508c-0.795,2.139 -2.05152,3 -4.22852,3c-2.569,0 -5.16156,-1.095 -7.22656,-3zM26.37305,50.64648c-0.25262,0.0405 -0.48839,0.17739 -0.65039,0.40039c-0.324,0.447 -0.2253,1.07148 0.2207,1.39648l1.61914,1.17578c0.178,0.128 0.38294,0.18945 0.58594,0.18945c0.31,0 0.61555,-0.14311 0.81055,-0.41211c0.324,-0.447 0.22334,-1.07148 -0.22266,-1.39648l-1.61719,-1.17578c-0.2245,-0.163 -0.49347,-0.21823 -0.74609,-0.17773zM37.625,50.64648c-0.2525,-0.04025 -0.51964,0.01523 -0.74414,0.17773l-1.61914,1.17578c-0.447,0.325 -0.54666,0.94948 -0.22266,1.39648c0.197,0.269 0.5025,0.41211 0.8125,0.41211c0.203,0 0.40894,-0.06145 0.58594,-0.18945l1.61719,-1.17578c0.447,-0.325 0.54666,-0.94948 0.22266,-1.39648c-0.1625,-0.2235 -0.39984,-0.36014 -0.65234,-0.40039zM23.48047,53.63281c-0.25262,-0.03988 -0.52064,0.01719 -0.74414,0.17969c-0.447,0.324 -0.5457,0.94753 -0.2207,1.39453l1.17578,1.61914c0.196,0.269 0.50055,0.41211 0.81055,0.41211c0.204,0 0.40894,-0.06241 0.58594,-0.19141c0.447,-0.324 0.5457,-0.94948 0.2207,-1.39648l-1.17578,-1.61719c-0.162,-0.224 -0.39972,-0.36051 -0.65234,-0.40039zM40.51758,53.63281c-0.2525,0.04 -0.48839,0.17689 -0.65039,0.40039l-1.17578,1.61719c-0.325,0.447 -0.2253,1.07248 0.2207,1.39648c0.178,0.128 0.38194,0.19141 0.58594,0.19141c0.31,0 0.61555,-0.14211 0.81055,-0.41211l1.17578,-1.61914c0.325,-0.447 0.2253,-1.07053 -0.2207,-1.39453c-0.224,-0.1625 -0.49359,-0.21969 -0.74609,-0.17969zM19.4375,55.47266c-0.12966,-0.01111 -0.26228,0.00388 -0.39453,0.04688c-0.525,0.171 -0.81358,0.73477 -0.64258,1.25977l0.61719,1.90234c0.138,0.421 0.52917,0.68945 0.95117,0.68945c0.102,0 0.20655,-0.01683 0.31055,-0.04883c0.525,-0.171 0.81358,-0.73477 0.64258,-1.25977l-0.61914,-1.90234c-0.12825,-0.39375 -0.47627,-0.65417 -0.86523,-0.6875zM44.5625,55.47266c-0.38897,0.0337 -0.73698,0.2945 -0.86523,0.6875l-0.61914,1.90039c-0.171,0.526 0.11858,1.09072 0.64258,1.26172c0.104,0.033 0.20755,0.04883 0.31055,0.04883c0.422,0 0.81417,-0.26841 0.95117,-0.69141l0.61719,-1.90039c0.171,-0.526 -0.11858,-1.09072 -0.64258,-1.26172c-0.13225,-0.04275 -0.26488,-0.05616 -0.39453,-0.04492zM15,56c-0.553,0 -1,0.447 -1,1v2c0,0.553 0.447,1 1,1c0.553,0 1,-0.447 1,-1v-2c0,-0.553 -0.447,-1 -1,-1zM49,56c-0.553,0 -1,0.447 -1,1v2c0,0.553 0.447,1 1,1c0.553,0 1,-0.447 1,-1v-2c0,-0.553 -0.447,-1 -1,-1z"></path></g></g></svg>